<svg xmlns="http://www.w3.org/2000/svg" xmlns:xlink="http://www.w3.org/1999/xlink" id="body" width="1363" height="1018"><g><g><g><g></g><g></g><g></g><g></g><g></g><g></g><g></g><g></g><g></g><g></g><g></g><g></g><g></g><g></g><g></g><g></g><g></g><g></g><g></g><g></g><g></g><g></g><g></g><g></g><g></g><g></g><g></g><g></g><g></g><g></g><g></g><g></g><g></g><g></g><g></g><g></g><g></g><g></g><g></g><g></g><g></g><g></g><g></g><g></g><g></g><g></g><g></g><g></g><g></g><g></g><g></g><g></g><g></g><g></g><g></g><g></g><g></g><g></g><g></g><g></g><g></g><g></g><g></g><g></g><g></g><g></g><g></g><g></g><g></g><g></g><g></g><g></g><g></g><g></g><g></g><g></g><g></g><g></g><g></g><g></g><g></g><g></g><g></g><g></g><g></g><g></g><g></g><g></g><g></g><g></g><g></g><g></g><g></g><g></g><g></g><g></g><g></g><g></g><g></g><g></g><g></g><g></g><g></g><g></g><g></g><g></g><g></g><g></g><g></g><g></g><g></g><g></g><g></g><g></g><g></g><g></g><g></g><g></g><g></g><g></g><g></g><g></g><g></g><g></g><g></g><g></g><g></g><g></g><g></g><g></g><g></g><g><path transform="matrix(1 0 0 -1 0 612)" d="M15.18 597.78L15.18 39.324" stroke="#000000" stroke-width="0.14" stroke-linecap="round" fill="none" /><path transform="matrix(1 0 0 -1 0 612)" d="M15.12 39.264L16.08 39.264L16.08 39.264L16.08 597.844L16.08 597.844L15.12 597.844z" stroke="none" fill="#000000" fill-rule="evenodd" /><path transform="matrix(1 0 0 -1 0 612)" d="M44.22 596.82L44.22 39.324" stroke="#000000" stroke-width="0.14" stroke-linecap="round" fill="none" /><path transform="matrix(1 0 0 -1 0 612)" d="M44.16 39.264L45.12 39.264L45.12 39.264L45.12 596.884L45.12 596.884L44.16 596.884z" stroke="none" fill="#000000" fill-rule="evenodd" /><path transform="matrix(1 0 0 -1 0 612)" d="M147.32 596.82L147.32 39.324" stroke="#000000" stroke-width="0.14" stroke-linecap="round" fill="none" /><path transform="matrix(1 0 0 -1 0 612)" d="M147.26 39.264L148.22 39.264L148.22 39.264L148.22 596.884L148.22 596.884L147.26 596.884z" stroke="none" fill="#000000" fill-rule="evenodd" /><path transform="matrix(1 0 0 -1 0 612)" d="M367.31 596.82L367.31 39.324" stroke="#000000" stroke-width="0.14" stroke-linecap="round" fill="none" /><path transform="matrix(1 0 0 -1 0 612)" d="M367.25 39.264L368.21 39.264L368.21 39.264L368.21 596.884L368.21 596.884L367.25 596.884z" stroke="none" fill="#000000" fill-rule="evenodd" /><path transform="matrix(1 0 0 -1 0 612)" d="M546.25 596.82L546.25 39.324" stroke="#000000" stroke-width="0.14" stroke-linecap="round" fill="none" /><path transform="matrix(1 0 0 -1 0 612)" d="M546.19 39.264L547.15 39.264L547.15 39.264L547.15 596.884L547.15 596.884L546.19 596.884z" stroke="none" fill="#000000" fill-rule="evenodd" /><path transform="matrix(1 0 0 -1 0 612)" d="M673.6 596.82L673.6 39.324" stroke="#000000" stroke-width="0.14" stroke-linecap="round" fill="none" /><path transform="matrix(1 0 0 -1 0 612)" d="M673.54 39.264L674.5 39.264L674.5 39.264L674.5 596.884L674.5 596.884L673.54 596.884z" stroke="none" fill="#000000" fill-rule="evenodd" /><path transform="matrix(1 0 0 -1 0 612)" d="M674.44 596.82L674.44 39.324" stroke="#000000" stroke-width="0.14" stroke-linecap="round" fill="none" /><path transform="matrix(1 0 0 -1 0 612)" d="M674.38 39.264L675.34 39.264L675.34 39.264L675.34 596.884L675.34 596.884L674.38 596.884z" stroke="none" fill="#000000" fill-rule="evenodd" /><path transform="matrix(1 0 0 -1 0 612)" d="M765.52 596.82L765.52 39.324" stroke="#000000" stroke-width="0.14" stroke-linecap="round" fill="none" /><path transform="matrix(1 0 0 -1 0 612)" d="M765.46 39.264L766.42 39.264L766.42 39.264L766.42 596.884L766.42 596.884L765.46 596.884z" stroke="none" fill="#000000" fill-rule="evenodd" /><path transform="matrix(1 0 0 -1 0 612)" d="M16.14 597.78L766.36 597.78" stroke="#000000" stroke-width="0.14" stroke-linecap="round" fill="none" /><path transform="matrix(1 0 0 -1 0 612)" d="M16.08 596.88L766.42 596.88L766.42 596.88L766.42 597.84L766.42 597.84L16.08 597.84z" stroke="none" fill="#000000" fill-rule="evenodd" /><path transform="matrix(1 0 0 -1 0 612)" d="M16.14 475.84L766.36 475.84" stroke="#000000" stroke-width="0.14" stroke-linecap="round" fill="none" /><path transform="matrix(1 0 0 -1 0 612)" d="M16.08 474.94L766.42 474.94L766.42 474.94L766.42 475.9L766.42 475.9L16.08 475.9z" stroke="none" fill="#000000" fill-rule="evenodd" /><path transform="matrix(1 0 0 -1 0 612)" d="M16.14 403.21L766.36 403.21" stroke="#000000" stroke-width="0.14" stroke-linecap="round" fill="none" /><path transform="matrix(1 0 0 -1 0 612)" d="M16.08 402.31L766.42 402.31L766.42 402.31L766.42 403.27L766.42 403.27L16.08 403.27z" stroke="none" fill="#000000" fill-rule="evenodd" /><path transform="matrix(1 0 0 -1 0 612)" d="M16.14 345.13L766.36 345.13" stroke="#000000" stroke-width="0.14" stroke-linecap="round" fill="none" /><path transform="matrix(1 0 0 -1 0 612)" d="M16.08 344.23L766.42 344.23L766.42 344.23L766.42 345.19L766.42 345.19L16.08 345.19z" stroke="none" fill="#000000" fill-rule="evenodd" /><path transform="matrix(1 0 0 -1 0 612)" d="M16.14 257.99L766.36 257.99" stroke="#000000" stroke-width="0.14" stroke-linecap="round" fill="none" /><path transform="matrix(1 0 0 -1 0 612)" d="M16.08 257.09L766.42 257.09L766.42 257.09L766.42 258.05L766.42 258.05L16.08 258.05z" stroke="none" fill="#000000" fill-rule="evenodd" /><path transform="matrix(1 0 0 -1 0 612)" d="M16.14 185.39L766.36 185.39" stroke="#000000" stroke-width="0.14" stroke-linecap="round" fill="none" /><path transform="matrix(1 0 0 -1 0 612)" d="M16.08 184.49L766.42 184.49L766.42 184.49L766.42 185.45L766.42 185.45L16.08 185.45z" stroke="none" fill="#000000" fill-rule="evenodd" /><path transform="matrix(1 0 0 -1 0 612)" d="M16.14 127.28L766.36 127.28" stroke="#000000" stroke-width="0.14" stroke-linecap="round" fill="none" /><path transform="matrix(1 0 0 -1 0 612)" d="M16.08 126.38L766.42 126.38L766.42 126.38L766.42 127.34L766.42 127.34L16.08 127.34z" stroke="none" fill="#000000" fill-rule="evenodd" /><path transform="matrix(1 0 0 -1 0 612)" d="M16.14 40.164L766.36 40.164" stroke="#000000" stroke-width="0.14" stroke-linecap="round" fill="none" /><path transform="matrix(1 0 0 -1 0 612)" d="M16.08 39.264L766.42 39.264L766.42 39.264L766.42 40.22402L766.42 40.22402L16.08 40.22402z" stroke="none" fill="#000000" fill-rule="evenodd" /></g></g></g></g></svg>