<svg xmlns="http://www.w3.org/2000/svg" xmlns:xlink="http://www.w3.org/1999/xlink" id="body" width="1363" height="1012"><g><g><g><g></g><g></g><g></g><g></g><g></g><g></g><g></g><g></g><g></g><g></g><g></g><g></g><g></g><g></g><g></g><g></g><g></g><g></g><g></g><g></g><g></g><g></g><g></g><g></g><g></g><g></g><g></g><g></g><g></g><g></g><g></g><g></g><g></g><g></g><g></g><g></g><g></g><g></g><g></g><g></g><g></g><g></g><g></g><g></g><g></g><g></g><g></g><g></g><g></g><g></g><g></g><g></g><g></g><g></g><g></g><g></g><g></g><g></g><g></g><g></g><g></g><g></g><g></g><g></g><g></g><g></g><g></g><g></g><g></g><g></g><g></g><g></g><g></g><g></g><g></g><g></g><g></g><g></g><g></g><g></g><g></g><g></g><g></g><g></g><g></g><g></g><g></g><g></g><g></g><g></g><g></g><g></g><g></g><g></g><g></g><g></g><g></g><g></g><g></g><g></g><g></g><g></g><g></g><g></g><g></g><g></g><g></g><g></g><g></g><g></g><g></g><g></g><g></g><g></g><g></g><g></g><g></g><g></g><g></g><g></g><g></g><g></g><g></g><g></g><g></g><g></g><g></g><g></g><g></g><g></g><g></g><g></g><g></g><g></g><g></g><g></g><g></g><g></g><g></g><g></g><g></g><g></g><g></g><g></g><g></g><g></g><g></g><g></g><g></g><g></g><g></g><g></g><g></g><g></g><g></g><g></g><g></g><g></g><g><path transform="matrix(1 0 0 -1 0 612)" d="M15.18 597.78L15.18 42.924" stroke="#000000" stroke-width="0.14" stroke-linecap="round" fill="none" /><path transform="matrix(1 0 0 -1 0 612)" d="M15.12 42.864L16.08 42.864L16.08 42.864L16.08 597.844L16.08 597.844L15.12 597.844z" stroke="none" fill="#000000" fill-rule="evenodd" /><path transform="matrix(1 0 0 -1 0 612)" d="M44.22 596.82L44.22 42.924" stroke="#000000" stroke-width="0.14" stroke-linecap="round" fill="none" /><path transform="matrix(1 0 0 -1 0 612)" d="M44.16 42.864L45.12 42.864L45.12 42.864L45.12 596.884L45.12 596.884L44.16 596.884z" stroke="none" fill="#000000" fill-rule="evenodd" /><path transform="matrix(1 0 0 -1 0 612)" d="M147.32 596.82L147.32 42.924" stroke="#000000" stroke-width="0.14" stroke-linecap="round" fill="none" /><path transform="matrix(1 0 0 -1 0 612)" d="M147.26 42.864L148.22 42.864L148.22 42.864L148.22 596.884L148.22 596.884L147.26 596.884z" stroke="none" fill="#000000" fill-rule="evenodd" /><path transform="matrix(1 0 0 -1 0 612)" d="M367.31 596.82L367.31 42.924" stroke="#000000" stroke-width="0.14" stroke-linecap="round" fill="none" /><path transform="matrix(1 0 0 -1 0 612)" d="M367.25 42.864L368.21 42.864L368.21 42.864L368.21 596.884L368.21 596.884L367.25 596.884z" stroke="none" fill="#000000" fill-rule="evenodd" /><path transform="matrix(1 0 0 -1 0 612)" d="M546.25 596.82L546.25 42.924" stroke="#000000" stroke-width="0.14" stroke-linecap="round" fill="none" /><path transform="matrix(1 0 0 -1 0 612)" d="M546.19 42.864L547.15 42.864L547.15 42.864L547.15 596.884L547.15 596.884L546.19 596.884z" stroke="none" fill="#000000" fill-rule="evenodd" /><path transform="matrix(1 0 0 -1 0 612)" d="M673.6 596.82L673.6 42.924" stroke="#000000" stroke-width="0.14" stroke-linecap="round" fill="none" /><path transform="matrix(1 0 0 -1 0 612)" d="M673.54 42.864L674.5 42.864L674.5 42.864L674.5 596.884L674.5 596.884L673.54 596.884z" stroke="none" fill="#000000" fill-rule="evenodd" /><path transform="matrix(1 0 0 -1 0 612)" d="M674.44 596.82L674.44 42.924" stroke="#000000" stroke-width="0.14" stroke-linecap="round" fill="none" /><path transform="matrix(1 0 0 -1 0 612)" d="M674.38 42.864L675.34 42.864L675.34 42.864L675.34 596.884L675.34 596.884L674.38 596.884z" stroke="none" fill="#000000" fill-rule="evenodd" /><path transform="matrix(1 0 0 -1 0 612)" d="M765.52 596.82L765.52 42.924" stroke="#000000" stroke-width="0.14" stroke-linecap="round" fill="none" /><path transform="matrix(1 0 0 -1 0 612)" d="M765.46 42.864L766.42 42.864L766.42 42.864L766.42 596.884L766.42 596.884L765.46 596.884z" stroke="none" fill="#000000" fill-rule="evenodd" /><path transform="matrix(1 0 0 -1 0 612)" d="M16.14 597.78L766.36 597.78" stroke="#000000" stroke-width="0.14" stroke-linecap="round" fill="none" /><path transform="matrix(1 0 0 -1 0 612)" d="M16.08 596.88L766.42 596.88L766.42 596.88L766.42 597.84L766.42 597.84L16.08 597.84z" stroke="none" fill="#000000" fill-rule="evenodd" /><path transform="matrix(1 0 0 -1 0 612)" d="M16.14 554.2L766.36 554.2" stroke="#000000" stroke-width="0.14" stroke-linecap="round" fill="none" /><path transform="matrix(1 0 0 -1 0 612)" d="M16.08 553.3L766.42 553.3L766.42 553.3L766.42 554.26L766.42 554.26L16.08 554.26z" stroke="none" fill="#000000" fill-rule="evenodd" /><path transform="matrix(1 0 0 -1 0 612)" d="M16.14 510.64L766.36 510.64" stroke="#000000" stroke-width="0.14" stroke-linecap="round" fill="none" /><path transform="matrix(1 0 0 -1 0 612)" d="M16.08 509.74L766.42 509.74L766.42 509.74L766.42 510.7L766.42 510.7L16.08 510.7z" stroke="none" fill="#000000" fill-rule="evenodd" /><path transform="matrix(1 0 0 -1 0 612)" d="M16.14 450.4L766.36 450.4" stroke="#000000" stroke-width="0.14" stroke-linecap="round" fill="none" /><path transform="matrix(1 0 0 -1 0 612)" d="M16.08 449.5L766.42 449.5L766.42 449.5L766.42 450.46L766.42 450.46L16.08 450.46z" stroke="none" fill="#000000" fill-rule="evenodd" /><path transform="matrix(1 0 0 -1 0 612)" d="M16.14 392.29L766.36 392.29" stroke="#000000" stroke-width="0.14" stroke-linecap="round" fill="none" /><path transform="matrix(1 0 0 -1 0 612)" d="M16.08 391.39L766.42 391.39L766.42 391.39L766.42 392.35L766.42 392.35L16.08 392.35z" stroke="none" fill="#000000" fill-rule="evenodd" /><path transform="matrix(1 0 0 -1 0 612)" d="M16.14 363.25L766.36 363.25" stroke="#000000" stroke-width="0.14" stroke-linecap="round" fill="none" /><path transform="matrix(1 0 0 -1 0 612)" d="M16.08 362.35L766.42 362.35L766.42 362.35L766.42 363.31L766.42 363.31L16.08 363.31z" stroke="none" fill="#000000" fill-rule="evenodd" /><path transform="matrix(1 0 0 -1 0 612)" d="M16.14 305.17L766.36 305.17" stroke="#000000" stroke-width="0.14" stroke-linecap="round" fill="none" /><path transform="matrix(1 0 0 -1 0 612)" d="M16.08 304.27L766.42 304.27L766.42 304.27L766.42 305.23L766.42 305.23L16.08 305.23z" stroke="none" fill="#000000" fill-rule="evenodd" /><path transform="matrix(1 0 0 -1 0 612)" d="M16.14 218.03L766.36 218.03" stroke="#000000" stroke-width="0.14" stroke-linecap="round" fill="none" /><path transform="matrix(1 0 0 -1 0 612)" d="M16.08 217.13L766.42 217.13L766.42 217.13L766.42 218.09L766.42 218.09L16.08 218.09z" stroke="none" fill="#000000" fill-rule="evenodd" /><path transform="matrix(1 0 0 -1 0 612)" d="M16.14 145.43L766.36 145.43" stroke="#000000" stroke-width="0.14" stroke-linecap="round" fill="none" /><path transform="matrix(1 0 0 -1 0 612)" d="M16.08 144.53L766.42 144.53L766.42 144.53L766.42 145.49L766.42 145.49L16.08 145.49z" stroke="none" fill="#000000" fill-rule="evenodd" /><path transform="matrix(1 0 0 -1 0 612)" d="M16.14 87.324L766.36 87.324" stroke="#000000" stroke-width="0.14" stroke-linecap="round" fill="none" /><path transform="matrix(1 0 0 -1 0 612)" d="M16.08 86.424L766.42 86.424L766.42 86.424L766.42 87.38396L766.42 87.38396L16.08 87.38396z" stroke="none" fill="#000000" fill-rule="evenodd" /><path transform="matrix(1 0 0 -1 0 612)" d="M16.14 43.764L766.36 43.764" stroke="#000000" stroke-width="0.14" stroke-linecap="round" fill="none" /><path transform="matrix(1 0 0 -1 0 612)" d="M16.08 42.864L766.42 42.864L766.42 42.864L766.42 43.82396L766.42 43.82396L16.08 43.82396z" stroke="none" fill="#000000" fill-rule="evenodd" /></g></g></g></g></svg>