<svg xmlns="http://www.w3.org/2000/svg" xmlns:xlink="http://www.w3.org/1999/xlink" id="body" width="1363" height="1034"><g><g><g><g></g><g></g><g></g><g></g><g></g><g></g><g></g><g></g><g></g><g></g><g></g><g></g><g></g><g></g><g></g><g></g><g></g><g></g><g></g><g></g><g></g><g></g><g></g><g></g><g></g><g></g><g></g><g></g><g></g><g></g><g></g><g></g><g></g><g></g><g></g><g></g><g></g><g></g><g></g><g></g><g></g><g></g><g></g><g></g><g></g><g></g><g></g><g></g><g></g><g></g><g></g><g></g><g></g><g></g><g></g><g></g><g></g><g></g><g></g><g></g><g></g><g></g><g></g><g></g><g></g><g></g><g></g><g></g><g></g><g></g><g></g><g></g><g></g><g></g><g></g><g></g><g></g><g></g><g></g><g></g><g></g><g></g><g></g><g></g><g></g><g></g><g></g><g></g><g></g><g></g><g></g><g></g><g></g><g></g><g></g><g></g><g></g><g></g><g></g><g></g><g></g><g></g><g></g><g></g><g></g><g></g><g></g><g></g><g></g><g></g><g></g><g></g><g></g><g></g><g></g><g></g><g></g><g></g><g></g><g></g><g></g><g></g><g></g><g></g><g></g><g></g><g></g><g></g><g></g><g></g><g></g><g></g><g></g><g></g><g></g><g></g><g></g><g></g><g></g><g></g><g></g><g></g><g></g><g></g><g><path transform="matrix(1 0 0 -1 0 612)" d="M15.18 597.78L15.18 30.564" stroke="#000000" stroke-width="0.14" stroke-linecap="round" fill="none" /><path transform="matrix(1 0 0 -1 0 612)" d="M15.12 30.504L16.08 30.504L16.08 30.504L16.08 597.8441L16.08 597.8441L15.12 597.8441z" stroke="none" fill="#000000" fill-rule="evenodd" /><path transform="matrix(1 0 0 -1 0 612)" d="M44.22 596.82L44.22 30.564" stroke="#000000" stroke-width="0.14" stroke-linecap="round" fill="none" /><path transform="matrix(1 0 0 -1 0 612)" d="M44.16 30.504L45.12 30.504L45.12 30.504L45.12 596.884L45.12 596.884L44.16 596.884z" stroke="none" fill="#000000" fill-rule="evenodd" /><path transform="matrix(1 0 0 -1 0 612)" d="M147.32 596.82L147.32 30.564" stroke="#000000" stroke-width="0.14" stroke-linecap="round" fill="none" /><path transform="matrix(1 0 0 -1 0 612)" d="M147.26 30.504L148.22 30.504L148.22 30.504L148.22 596.884L148.22 596.884L147.26 596.884z" stroke="none" fill="#000000" fill-rule="evenodd" /><path transform="matrix(1 0 0 -1 0 612)" d="M367.31 596.82L367.31 30.564" stroke="#000000" stroke-width="0.14" stroke-linecap="round" fill="none" /><path transform="matrix(1 0 0 -1 0 612)" d="M367.25 30.504L368.21 30.504L368.21 30.504L368.21 596.884L368.21 596.884L367.25 596.884z" stroke="none" fill="#000000" fill-rule="evenodd" /><path transform="matrix(1 0 0 -1 0 612)" d="M546.25 596.82L546.25 30.564" stroke="#000000" stroke-width="0.14" stroke-linecap="round" fill="none" /><path transform="matrix(1 0 0 -1 0 612)" d="M546.19 30.504L547.15 30.504L547.15 30.504L547.15 596.884L547.15 596.884L546.19 596.884z" stroke="none" fill="#000000" fill-rule="evenodd" /><path transform="matrix(1 0 0 -1 0 612)" d="M673.6 596.82L673.6 30.564" stroke="#000000" stroke-width="0.14" stroke-linecap="round" fill="none" /><path transform="matrix(1 0 0 -1 0 612)" d="M673.54 30.504L674.5 30.504L674.5 30.504L674.5 596.884L674.5 596.884L673.54 596.884z" stroke="none" fill="#000000" fill-rule="evenodd" /><path transform="matrix(1 0 0 -1 0 612)" d="M674.44 596.82L674.44 30.564" stroke="#000000" stroke-width="0.14" stroke-linecap="round" fill="none" /><path transform="matrix(1 0 0 -1 0 612)" d="M674.38 30.504L675.34 30.504L675.34 30.504L675.34 596.884L675.34 596.884L674.38 596.884z" stroke="none" fill="#000000" fill-rule="evenodd" /><path transform="matrix(1 0 0 -1 0 612)" d="M765.52 596.82L765.52 30.564" stroke="#000000" stroke-width="0.14" stroke-linecap="round" fill="none" /><path transform="matrix(1 0 0 -1 0 612)" d="M765.46 30.504L766.42 30.504L766.42 30.504L766.42 596.884L766.42 596.884L765.46 596.884z" stroke="none" fill="#000000" fill-rule="evenodd" /><path transform="matrix(1 0 0 -1 0 612)" d="M16.14 597.78L766.36 597.78" stroke="#000000" stroke-width="0.14" stroke-linecap="round" fill="none" /><path transform="matrix(1 0 0 -1 0 612)" d="M16.08 596.88L766.42 596.88L766.42 596.88L766.42 597.84L766.42 597.84L16.08 597.84z" stroke="none" fill="#000000" fill-rule="evenodd" /><path transform="matrix(1 0 0 -1 0 612)" d="M16.14 525.16L766.36 525.16" stroke="#000000" stroke-width="0.14" stroke-linecap="round" fill="none" /><path transform="matrix(1 0 0 -1 0 612)" d="M16.08 524.26L766.42 524.26L766.42 524.26L766.42 525.22L766.42 525.22L16.08 525.22z" stroke="none" fill="#000000" fill-rule="evenodd" /><path transform="matrix(1 0 0 -1 0 612)" d="M16.14 423.49L766.36 423.49" stroke="#000000" stroke-width="0.14" stroke-linecap="round" fill="none" /><path transform="matrix(1 0 0 -1 0 612)" d="M16.08 422.59L766.42 422.59L766.42 422.59L766.42 423.55L766.42 423.55L16.08 423.55z" stroke="none" fill="#000000" fill-rule="evenodd" /><path transform="matrix(1 0 0 -1 0 612)" d="M16.14 365.41L766.36 365.41" stroke="#000000" stroke-width="0.14" stroke-linecap="round" fill="none" /><path transform="matrix(1 0 0 -1 0 612)" d="M16.08 364.51L766.42 364.51L766.42 364.51L766.42 365.47L766.42 365.47L16.08 365.47z" stroke="none" fill="#000000" fill-rule="evenodd" /><path transform="matrix(1 0 0 -1 0 612)" d="M16.14 292.81L766.36 292.81" stroke="#000000" stroke-width="0.14" stroke-linecap="round" fill="none" /><path transform="matrix(1 0 0 -1 0 612)" d="M16.08 291.91L766.42 291.91L766.42 291.91L766.42 292.87L766.42 292.87L16.08 292.87z" stroke="none" fill="#000000" fill-rule="evenodd" /><path transform="matrix(1 0 0 -1 0 612)" d="M16.14 234.71L766.36 234.71" stroke="#000000" stroke-width="0.14" stroke-linecap="round" fill="none" /><path transform="matrix(1 0 0 -1 0 612)" d="M16.08 233.81L766.42 233.81L766.42 233.81L766.42 234.77L766.42 234.77L16.08 234.77z" stroke="none" fill="#000000" fill-rule="evenodd" /><path transform="matrix(1 0 0 -1 0 612)" d="M16.14 147.59L766.36 147.59" stroke="#000000" stroke-width="0.14" stroke-linecap="round" fill="none" /><path transform="matrix(1 0 0 -1 0 612)" d="M16.08 146.69L766.42 146.69L766.42 146.69L766.42 147.65L766.42 147.65L16.08 147.65z" stroke="none" fill="#000000" fill-rule="evenodd" /><path transform="matrix(1 0 0 -1 0 612)" d="M16.14 89.484L766.36 89.484" stroke="#000000" stroke-width="0.14" stroke-linecap="round" fill="none" /><path transform="matrix(1 0 0 -1 0 612)" d="M16.08 88.584L766.42 88.584L766.42 88.584L766.42 89.54402L766.42 89.54402L16.08 89.54402z" stroke="none" fill="#000000" fill-rule="evenodd" /><path transform="matrix(1 0 0 -1 0 612)" d="M16.14 31.404L766.36 31.404" stroke="#000000" stroke-width="0.14" stroke-linecap="round" fill="none" /><path transform="matrix(1 0 0 -1 0 612)" d="M16.08 30.504L766.42 30.504L766.42 30.504L766.42 31.46402L766.42 31.46402L16.08 31.46402z" stroke="none" fill="#000000" fill-rule="evenodd" /></g></g></g></g></svg>