<svg xmlns="http://www.w3.org/2000/svg" xmlns:xlink="http://www.w3.org/1999/xlink" id="body" width="1363" height="990"><g><g><g><g><g><g><path transform="matrix(1 0 0 -1 0 612)" d="M299.36 245.3154L503.86 245.3154L503.86 245.3154L503.86 257.6154L503.86 257.6154L299.36 257.6154z" stroke="none" fill="#FFFF00" fill-rule="winding" /><path transform="matrix(1 0 0 -1 0 612)" d="M299.36 231.4153L440.36 231.4153L440.36 231.4153L440.36 243.6154L440.36 243.6154L299.36 243.6154z" stroke="none" fill="#FFFF00" fill-rule="winding" /></g></g></g><g></g><g></g><g></g><g></g><g></g><g></g><g></g><g></g><g></g><g></g><g></g><g></g><g></g><g></g><g></g><g></g><g></g><g></g><g></g><g></g><g></g><g></g><g></g><g></g><g></g><g></g><g></g><g></g><g></g><g></g><g></g><g></g><g></g><g></g><g></g><g></g><g></g><g></g><g></g><g></g><g></g><g></g><g></g><g></g><g></g><g></g><g></g><g></g><g></g><g></g><g></g><g></g><g></g><g></g><g></g><g></g><g></g><g></g><g></g><g></g><g></g><g></g><g></g><g></g><g></g><g></g><g></g><g></g><g></g><g></g><g></g><g></g><g></g><g></g><g></g><g></g><g></g><g></g><g></g><g></g><g></g><g></g><g></g><g></g><g></g><g></g><g></g><g></g><g></g><g></g><g></g><g></g><g></g><g></g><g></g><g></g><g></g><g></g><g></g><g></g><g></g><g></g><g></g><g></g><g></g><g></g><g></g><g></g><g></g><g></g><g></g><g></g><g></g><g></g><g></g><g></g><g></g><g><path transform="matrix(1 0 0 -1 0 612)" d="M44.22 596.82L44.22 321.01" stroke="#000000" stroke-width="0.14" stroke-linecap="round" fill="none" /><path transform="matrix(1 0 0 -1 0 612)" d="M44.16 320.95L45.12 320.95L45.12 320.95L45.12 596.88L45.12 596.88L44.16 596.88z" stroke="none" fill="#000000" fill-rule="evenodd" /><path transform="matrix(1 0 0 -1 0 612)" d="M147.32 596.82L147.32 321.01" stroke="#000000" stroke-width="0.14" stroke-linecap="round" fill="none" /><path transform="matrix(1 0 0 -1 0 612)" d="M147.26 320.95L148.22 320.95L148.22 320.95L148.22 596.88L148.22 596.88L147.26 596.88z" stroke="none" fill="#000000" fill-rule="evenodd" /><path transform="matrix(1 0 0 -1 0 612)" d="M367.31 596.82L367.31 321.01" stroke="#000000" stroke-width="0.14" stroke-linecap="round" fill="none" /><path transform="matrix(1 0 0 -1 0 612)" d="M367.25 320.95L368.21 320.95L368.21 320.95L368.21 596.88L368.21 596.88L367.25 596.88z" stroke="none" fill="#000000" fill-rule="evenodd" /><path transform="matrix(1 0 0 -1 0 612)" d="M546.25 596.82L546.25 321.01" stroke="#000000" stroke-width="0.14" stroke-linecap="round" fill="none" /><path transform="matrix(1 0 0 -1 0 612)" d="M546.19 320.95L547.15 320.95L547.15 320.95L547.15 596.88L547.15 596.88L546.19 596.88z" stroke="none" fill="#000000" fill-rule="evenodd" /><path transform="matrix(1 0 0 -1 0 612)" d="M673.6 596.82L673.6 321.01" stroke="#000000" stroke-width="0.14" stroke-linecap="round" fill="none" /><path transform="matrix(1 0 0 -1 0 612)" d="M673.54 320.95L674.5 320.95L674.5 320.95L674.5 596.88L674.5 596.88L673.54 596.88z" stroke="none" fill="#000000" fill-rule="evenodd" /><path transform="matrix(1 0 0 -1 0 612)" d="M674.44 596.82L674.44 321.01" stroke="#000000" stroke-width="0.14" stroke-linecap="round" fill="none" /><path transform="matrix(1 0 0 -1 0 612)" d="M674.38 320.95L675.34 320.95L675.34 320.95L675.34 596.88L675.34 596.88L674.38 596.88z" stroke="none" fill="#000000" fill-rule="evenodd" /><path transform="matrix(1 0 0 -1 0 612)" d="M15.18 597.78L15.18 55.284" stroke="#000000" stroke-width="0.14" stroke-linecap="round" fill="none" /><path transform="matrix(1 0 0 -1 0 612)" d="M15.12 55.224L16.08 55.224L16.08 55.224L16.08 597.844L16.08 597.844L15.12 597.844z" stroke="none" fill="#000000" fill-rule="evenodd" /><path transform="matrix(1 0 0 -1 0 612)" d="M44.22 302.05L44.22 55.284" stroke="#000000" stroke-width="0.14" stroke-linecap="round" fill="none" /><path transform="matrix(1 0 0 -1 0 612)" d="M44.16 55.224L45.12 55.224L45.12 55.224L45.12 302.114L45.12 302.114L44.16 302.114z" stroke="none" fill="#000000" fill-rule="evenodd" /><path transform="matrix(1 0 0 -1 0 612)" d="M147.32 302.05L147.32 55.284" stroke="#000000" stroke-width="0.14" stroke-linecap="round" fill="none" /><path transform="matrix(1 0 0 -1 0 612)" d="M147.26 55.224L148.22 55.224L148.22 55.224L148.22 302.114L148.22 302.114L147.26 302.114z" stroke="none" fill="#000000" fill-rule="evenodd" /><path transform="matrix(1 0 0 -1 0 612)" d="M367.31 302.05L367.31 55.284" stroke="#000000" stroke-width="0.14" stroke-linecap="round" fill="none" /><path transform="matrix(1 0 0 -1 0 612)" d="M367.25 55.224L368.21 55.224L368.21 55.224L368.21 302.114L368.21 302.114L367.25 302.114z" stroke="none" fill="#000000" fill-rule="evenodd" /><path transform="matrix(1 0 0 -1 0 612)" d="M546.25 302.05L546.25 55.284" stroke="#000000" stroke-width="0.14" stroke-linecap="round" fill="none" /><path transform="matrix(1 0 0 -1 0 612)" d="M546.19 55.224L547.15 55.224L547.15 55.224L547.15 302.114L547.15 302.114L546.19 302.114z" stroke="none" fill="#000000" fill-rule="evenodd" /><path transform="matrix(1 0 0 -1 0 612)" d="M673.6 302.05L673.6 55.284" stroke="#000000" stroke-width="0.14" stroke-linecap="round" fill="none" /><path transform="matrix(1 0 0 -1 0 612)" d="M673.54 55.224L674.5 55.224L674.5 55.224L674.5 302.114L674.5 302.114L673.54 302.114z" stroke="none" fill="#000000" fill-rule="evenodd" /><path transform="matrix(1 0 0 -1 0 612)" d="M674.44 302.05L674.44 55.284" stroke="#000000" stroke-width="0.14" stroke-linecap="round" fill="none" /><path transform="matrix(1 0 0 -1 0 612)" d="M674.38 55.224L675.34 55.224L675.34 55.224L675.34 302.114L675.34 302.114L674.38 302.114z" stroke="none" fill="#000000" fill-rule="evenodd" /><path transform="matrix(1 0 0 -1 0 612)" d="M765.52 596.82L765.52 55.284" stroke="#000000" stroke-width="0.14" stroke-linecap="round" fill="none" /><path transform="matrix(1 0 0 -1 0 612)" d="M765.46 55.224L766.42 55.224L766.42 55.224L766.42 596.884L766.42 596.884L765.46 596.884z" stroke="none" fill="#000000" fill-rule="evenodd" /><path transform="matrix(1 0 0 -1 0 612)" d="M16.14 597.78L766.36 597.78" stroke="#000000" stroke-width="0.14" stroke-linecap="round" fill="none" /><path transform="matrix(1 0 0 -1 0 612)" d="M16.08 596.88L766.42 596.88L766.42 596.88L766.42 597.84L766.42 597.84L16.08 597.84z" stroke="none" fill="#000000" fill-rule="evenodd" /><path transform="matrix(1 0 0 -1 0 612)" d="M16.14 510.64L766.36 510.64" stroke="#000000" stroke-width="0.14" stroke-linecap="round" fill="none" /><path transform="matrix(1 0 0 -1 0 612)" d="M16.08 509.74L766.42 509.74L766.42 509.74L766.42 510.7L766.42 510.7L16.08 510.7z" stroke="none" fill="#000000" fill-rule="evenodd" /><path transform="matrix(1 0 0 -1 0 612)" d="M16.14 379.93L766.36 379.93" stroke="#000000" stroke-width="0.14" stroke-linecap="round" fill="none" /><path transform="matrix(1 0 0 -1 0 612)" d="M16.08 379.03L766.42 379.03L766.42 379.03L766.42 379.99L766.42 379.99L16.08 379.99z" stroke="none" fill="#000000" fill-rule="evenodd" /><path transform="matrix(1 0 0 -1 0 612)" d="M16.14 321.85L766.36 321.85" stroke="#000000" stroke-width="0.14" stroke-linecap="round" fill="none" /><path transform="matrix(1 0 0 -1 0 612)" d="M16.08 320.95L766.42 320.95L766.42 320.95L766.42 321.91L766.42 321.91L16.08 321.91z" stroke="none" fill="#000000" fill-rule="evenodd" /><path transform="matrix(1 0 0 -1 0 612)" d="M16.14 303.01L766.36 303.01" stroke="#000000" stroke-width="0.14" stroke-linecap="round" fill="none" /><path transform="matrix(1 0 0 -1 0 612)" d="M16.08 302.11L766.42 302.11L766.42 302.11L766.42 303.07L766.42 303.07L16.08 303.07z" stroke="none" fill="#000000" fill-rule="evenodd" /><path transform="matrix(1 0 0 -1 0 612)" d="M16.14 244.91L766.36 244.91" stroke="#000000" stroke-width="0.14" stroke-linecap="round" fill="none" /><path transform="matrix(1 0 0 -1 0 612)" d="M16.08 244.01L766.42 244.01L766.42 244.01L766.42 244.97L766.42 244.97L16.08 244.97z" stroke="none" fill="#000000" fill-rule="evenodd" /><path transform="matrix(1 0 0 -1 0 612)" d="M16.14 186.83L766.36 186.83" stroke="#000000" stroke-width="0.14" stroke-linecap="round" fill="none" /><path transform="matrix(1 0 0 -1 0 612)" d="M16.08 185.93L766.42 185.93L766.42 185.93L766.42 186.89L766.42 186.89L16.08 186.89z" stroke="none" fill="#000000" fill-rule="evenodd" /><path transform="matrix(1 0 0 -1 0 612)" d="M16.14 143.27L766.36 143.27" stroke="#000000" stroke-width="0.14" stroke-linecap="round" fill="none" /><path transform="matrix(1 0 0 -1 0 612)" d="M16.08 142.37L766.42 142.37L766.42 142.37L766.42 143.33L766.42 143.33L16.08 143.33z" stroke="none" fill="#000000" fill-rule="evenodd" /><path transform="matrix(1 0 0 -1 0 612)" d="M16.14 99.684L766.36 99.684" stroke="#000000" stroke-width="0.14" stroke-linecap="round" fill="none" /><path transform="matrix(1 0 0 -1 0 612)" d="M16.08 98.784L766.42 98.784L766.42 98.784L766.42 99.74402L766.42 99.74402L16.08 99.74402z" stroke="none" fill="#000000" fill-rule="evenodd" /><path transform="matrix(1 0 0 -1 0 612)" d="M16.14 56.124L766.36 56.124" stroke="#000000" stroke-width="0.14" stroke-linecap="round" fill="none" /><path transform="matrix(1 0 0 -1 0 612)" d="M16.08 55.224L766.42 55.224L766.42 55.224L766.42 56.18402L766.42 56.18402L16.08 56.18402z" stroke="none" fill="#000000" fill-rule="evenodd" /></g></g></g></g></svg>