<svg xmlns="http://www.w3.org/2000/svg" xmlns:xlink="http://www.w3.org/1999/xlink" id="body" width="1363" height="990"><g><g><g><g><path transform="matrix(1 0 0 -1 0 612)" d="M15.6 259.01L44.76 259.01L44.76 259.01L44.76 331.754L44.76 331.754L15.6 331.754z" stroke="none" fill="#FFFFFF" fill-rule="evenodd" /></g><path transform="matrix(1 0 0 -1 0 612)" d="M367.73 259.01L546.79 259.01L546.79 259.01L546.79 331.754L546.79 331.754L367.73 331.754z" stroke="none" fill="#FFFFFF" fill-rule="evenodd" /><g></g><g></g><g></g><g></g><g></g><g></g><g></g><g></g><g></g><g></g><g></g><g></g><g></g><g></g><g></g><g></g><g></g><g></g><g></g><g></g><g></g><g></g><g></g><g></g><g></g><g></g><g></g><g></g><g></g><g></g><g></g><g></g><g></g><g></g><g></g><g></g><g></g><g></g><g></g><g></g><g></g><g></g><g></g><g></g><g></g><g></g><g></g><g></g><g></g><g></g><g></g><g></g><g></g><g></g><g></g><g></g><g></g><g></g><g></g><g></g><g></g><g></g><g></g><g></g><g></g><g></g><g></g><g></g><g></g><g></g><g></g><g></g><g></g><g></g><g></g><g></g><g></g><g></g><g></g><g></g><g></g><g></g><g></g><g></g><g></g><g></g><g></g><g></g><g></g><g></g><g></g><g></g><g></g><g></g><g></g><g></g><g></g><g></g><g></g><g></g><g></g><g></g><g></g><g></g><g></g><g></g><g></g><g></g><g></g><g></g><g></g><g></g><g></g><g></g><g></g><g><path transform="matrix(1 0 0 -1 0 612)" d="M44.22 541.72L44.22 514.24" stroke="#000000" stroke-width="0.14" stroke-linecap="round" fill="none" /><path transform="matrix(1 0 0 -1 0 612)" d="M44.16 514.18L45.12 514.18L45.12 514.18L45.12 541.78L45.12 541.78L44.16 541.78z" stroke="none" fill="#000000" fill-rule="evenodd" /><path transform="matrix(1 0 0 -1 0 612)" d="M147.32 541.72L147.32 514.24" stroke="#000000" stroke-width="0.14" stroke-linecap="round" fill="none" /><path transform="matrix(1 0 0 -1 0 612)" d="M147.26 514.18L148.22 514.18L148.22 514.18L148.22 541.78L148.22 541.78L147.26 541.78z" stroke="none" fill="#000000" fill-rule="evenodd" /><path transform="matrix(1 0 0 -1 0 612)" d="M367.31 541.72L367.31 514.24" stroke="#000000" stroke-width="0.14" stroke-linecap="round" fill="none" /><path transform="matrix(1 0 0 -1 0 612)" d="M367.25 514.18L368.21 514.18L368.21 514.18L368.21 541.78L368.21 541.78L367.25 541.78z" stroke="none" fill="#000000" fill-rule="evenodd" /><path transform="matrix(1 0 0 -1 0 612)" d="M546.25 541.72L546.25 514.24" stroke="#000000" stroke-width="0.14" stroke-linecap="round" fill="none" /><path transform="matrix(1 0 0 -1 0 612)" d="M546.19 514.18L547.15 514.18L547.15 514.18L547.15 541.78L547.15 541.78L546.19 541.78z" stroke="none" fill="#000000" fill-rule="evenodd" /><path transform="matrix(1 0 0 -1 0 612)" d="M673.6 541.72L673.6 514.24" stroke="#000000" stroke-width="0.14" stroke-linecap="round" fill="none" /><path transform="matrix(1 0 0 -1 0 612)" d="M673.54 514.18L674.5 514.18L674.5 514.18L674.5 541.78L674.5 541.78L673.54 541.78z" stroke="none" fill="#000000" fill-rule="evenodd" /><path transform="matrix(1 0 0 -1 0 612)" d="M674.44 541.72L674.44 514.24" stroke="#000000" stroke-width="0.14" stroke-linecap="round" fill="none" /><path transform="matrix(1 0 0 -1 0 612)" d="M674.38 514.18L675.34 514.18L675.34 514.18L675.34 541.78L675.34 541.78L674.38 541.78z" stroke="none" fill="#000000" fill-rule="evenodd" /><path transform="matrix(1 0 0 -1 0 612)" d="M44.22 495.28L44.22 422.77" stroke="#000000" stroke-width="0.14" stroke-linecap="round" fill="none" /><path transform="matrix(1 0 0 -1 0 612)" d="M44.16 422.71L45.12 422.71L45.12 422.71L45.12 495.334L45.12 495.334L44.16 495.334z" stroke="none" fill="#000000" fill-rule="evenodd" /><path transform="matrix(1 0 0 -1 0 612)" d="M147.32 495.28L147.32 422.77" stroke="#000000" stroke-width="0.14" stroke-linecap="round" fill="none" /><path transform="matrix(1 0 0 -1 0 612)" d="M147.26 422.71L148.22 422.71L148.22 422.71L148.22 495.334L148.22 495.334L147.26 495.334z" stroke="none" fill="#000000" fill-rule="evenodd" /><path transform="matrix(1 0 0 -1 0 612)" d="M367.31 495.28L367.31 422.77" stroke="#000000" stroke-width="0.14" stroke-linecap="round" fill="none" /><path transform="matrix(1 0 0 -1 0 612)" d="M367.25 422.71L368.21 422.71L368.21 422.71L368.21 495.334L368.21 495.334L367.25 495.334z" stroke="none" fill="#000000" fill-rule="evenodd" /><path transform="matrix(1 0 0 -1 0 612)" d="M546.25 495.28L546.25 422.77" stroke="#000000" stroke-width="0.14" stroke-linecap="round" fill="none" /><path transform="matrix(1 0 0 -1 0 612)" d="M546.19 422.71L547.15 422.71L547.15 422.71L547.15 495.334L547.15 495.334L546.19 495.334z" stroke="none" fill="#000000" fill-rule="evenodd" /><path transform="matrix(1 0 0 -1 0 612)" d="M673.6 495.28L673.6 422.77" stroke="#000000" stroke-width="0.14" stroke-linecap="round" fill="none" /><path transform="matrix(1 0 0 -1 0 612)" d="M673.54 422.71L674.5 422.71L674.5 422.71L674.5 495.334L674.5 495.334L673.54 495.334z" stroke="none" fill="#000000" fill-rule="evenodd" /><path transform="matrix(1 0 0 -1 0 612)" d="M674.44 495.28L674.44 422.77" stroke="#000000" stroke-width="0.14" stroke-linecap="round" fill="none" /><path transform="matrix(1 0 0 -1 0 612)" d="M674.38 422.71L675.34 422.71L675.34 422.71L675.34 495.334L675.34 495.334L674.38 495.334z" stroke="none" fill="#000000" fill-rule="evenodd" /><path transform="matrix(1 0 0 -1 0 612)" d="M15.18 542.68L15.18 55.404" stroke="#000000" stroke-width="0.14" stroke-linecap="round" fill="none" /><path transform="matrix(1 0 0 -1 0 612)" d="M15.12 55.344L16.08 55.344L16.08 55.344L16.08 542.734L16.08 542.734L15.12 542.734z" stroke="none" fill="#000000" fill-rule="evenodd" /><path transform="matrix(1 0 0 -1 0 612)" d="M44.22 403.81L44.22 55.404" stroke="#000000" stroke-width="0.14" stroke-linecap="round" fill="none" /><path transform="matrix(1 0 0 -1 0 612)" d="M44.16 55.344L45.12 55.344L45.12 55.344L45.12 403.874L45.12 403.874L44.16 403.874z" stroke="none" fill="#000000" fill-rule="evenodd" /><path transform="matrix(1 0 0 -1 0 612)" d="M147.32 403.81L147.32 55.404" stroke="#000000" stroke-width="0.14" stroke-linecap="round" fill="none" /><path transform="matrix(1 0 0 -1 0 612)" d="M147.26 55.344L148.22 55.344L148.22 55.344L148.22 403.874L148.22 403.874L147.26 403.874z" stroke="none" fill="#000000" fill-rule="evenodd" /><path transform="matrix(1 0 0 -1 0 612)" d="M367.31 403.81L367.31 55.404" stroke="#000000" stroke-width="0.14" stroke-linecap="round" fill="none" /><path transform="matrix(1 0 0 -1 0 612)" d="M367.25 55.344L368.21 55.344L368.21 55.344L368.21 403.874L368.21 403.874L367.25 403.874z" stroke="none" fill="#000000" fill-rule="evenodd" /><path transform="matrix(1 0 0 -1 0 612)" d="M546.25 403.81L546.25 55.404" stroke="#000000" stroke-width="0.14" stroke-linecap="round" fill="none" /><path transform="matrix(1 0 0 -1 0 612)" d="M546.19 55.344L547.15 55.344L547.15 55.344L547.15 403.874L547.15 403.874L546.19 403.874z" stroke="none" fill="#000000" fill-rule="evenodd" /><path transform="matrix(1 0 0 -1 0 612)" d="M673.6 403.81L673.6 55.404" stroke="#000000" stroke-width="0.14" stroke-linecap="round" fill="none" /><path transform="matrix(1 0 0 -1 0 612)" d="M673.54 55.344L674.5 55.344L674.5 55.344L674.5 403.874L674.5 403.874L673.54 403.874z" stroke="none" fill="#000000" fill-rule="evenodd" /><path transform="matrix(1 0 0 -1 0 612)" d="M674.44 403.81L674.44 55.404" stroke="#000000" stroke-width="0.14" stroke-linecap="round" fill="none" /><path transform="matrix(1 0 0 -1 0 612)" d="M674.38 55.344L675.34 55.344L675.34 55.344L675.34 403.874L675.34 403.874L674.38 403.874z" stroke="none" fill="#000000" fill-rule="evenodd" /><path transform="matrix(1 0 0 -1 0 612)" d="M765.52 541.72L765.52 55.404" stroke="#000000" stroke-width="0.14" stroke-linecap="round" fill="none" /><path transform="matrix(1 0 0 -1 0 612)" d="M765.46 55.344L766.42 55.344L766.42 55.344L766.42 541.774L766.42 541.774L765.46 541.774z" stroke="none" fill="#000000" fill-rule="evenodd" /><path transform="matrix(1 0 0 -1 0 612)" d="M16.14 542.68L766.36 542.68" stroke="#000000" stroke-width="0.14" stroke-linecap="round" fill="none" /><path transform="matrix(1 0 0 -1 0 612)" d="M16.08 541.78L766.42 541.78L766.42 541.78L766.42 542.7401L766.42 542.7401L16.08 542.7401z" stroke="none" fill="#000000" fill-rule="evenodd" /><path transform="matrix(1 0 0 -1 0 612)" d="M16.14 515.08L766.36 515.08" stroke="#000000" stroke-width="0.14" stroke-linecap="round" fill="none" /><path transform="matrix(1 0 0 -1 0 612)" d="M16.08 514.18L766.42 514.18L766.42 514.18L766.42 515.14L766.42 515.14L16.08 515.14z" stroke="none" fill="#000000" fill-rule="evenodd" /><path transform="matrix(1 0 0 -1 0 612)" d="M16.14 496.24L766.36 496.24" stroke="#000000" stroke-width="0.14" stroke-linecap="round" fill="none" /><path transform="matrix(1 0 0 -1 0 612)" d="M16.08 495.34L766.42 495.34L766.42 495.34L766.42 496.3L766.42 496.3L16.08 496.3z" stroke="none" fill="#000000" fill-rule="evenodd" /><path transform="matrix(1 0 0 -1 0 612)" d="M16.14 423.61L766.36 423.61" stroke="#000000" stroke-width="0.14" stroke-linecap="round" fill="none" /><path transform="matrix(1 0 0 -1 0 612)" d="M16.08 422.71L766.42 422.71L766.42 422.71L766.42 423.67L766.42 423.67L16.08 423.67z" stroke="none" fill="#000000" fill-rule="evenodd" /><path transform="matrix(1 0 0 -1 0 612)" d="M16.14 404.77L766.36 404.77" stroke="#000000" stroke-width="0.14" stroke-linecap="round" fill="none" /><path transform="matrix(1 0 0 -1 0 612)" d="M16.08 403.87L766.42 403.87L766.42 403.87L766.42 404.83L766.42 404.83L16.08 404.83z" stroke="none" fill="#000000" fill-rule="evenodd" /><path transform="matrix(1 0 0 -1 0 612)" d="M16.14 332.17L766.36 332.17" stroke="#000000" stroke-width="0.14" stroke-linecap="round" fill="none" /><path transform="matrix(1 0 0 -1 0 612)" d="M16.08 331.27L766.42 331.27L766.42 331.27L766.42 332.23L766.42 332.23L16.08 332.23z" stroke="none" fill="#000000" fill-rule="evenodd" /><path transform="matrix(1 0 0 -1 0 612)" d="M16.14 259.55L766.36 259.55" stroke="#000000" stroke-width="0.14" stroke-linecap="round" fill="none" /><path transform="matrix(1 0 0 -1 0 612)" d="M16.08 258.65L766.42 258.65L766.42 258.65L766.42 259.61L766.42 259.61L16.08 259.61z" stroke="none" fill="#000000" fill-rule="evenodd" /><path transform="matrix(1 0 0 -1 0 612)" d="M16.14 186.95L766.36 186.95" stroke="#000000" stroke-width="0.14" stroke-linecap="round" fill="none" /><path transform="matrix(1 0 0 -1 0 612)" d="M16.08 186.05L766.42 186.05L766.42 186.05L766.42 187.01L766.42 187.01L16.08 187.01z" stroke="none" fill="#000000" fill-rule="evenodd" /><path transform="matrix(1 0 0 -1 0 612)" d="M16.14 114.32L766.36 114.32" stroke="#000000" stroke-width="0.14" stroke-linecap="round" fill="none" /><path transform="matrix(1 0 0 -1 0 612)" d="M16.08 113.42L766.42 113.42L766.42 113.42L766.42 114.38L766.42 114.38L16.08 114.38z" stroke="none" fill="#000000" fill-rule="evenodd" /><path transform="matrix(1 0 0 -1 0 612)" d="M16.14 56.244L766.36 56.244" stroke="#000000" stroke-width="0.14" stroke-linecap="round" fill="none" /><path transform="matrix(1 0 0 -1 0 612)" d="M16.08 55.344L766.42 55.344L766.42 55.344L766.42 56.30402L766.42 56.30402L16.08 56.30402z" stroke="none" fill="#000000" fill-rule="evenodd" /></g></g></g></g></svg>